HIERARCHY
ROOT Hips
{
	OFFSET 0.000000 83.214638 0.000000
	CHANNELS 6 Xposition Yposition Zposition Xrotation Yrotation Zrotation
	JOINT Pelvis
	{
		OFFSET 0.000000 0.000000 0.000000
		CHANNELS 3 Xrotation Yrotation Zrotation
		JOINT LeftUpLeg
		{
			OFFSET 8.479700 -4.795502 -0.379100
			CHANNELS 3 Xrotation Yrotation Zrotation
			JOINT LeftLeg
			{
				OFFSET 0.024144 -32.555107 0.112900
				CHANNELS 3 Xrotation Yrotation Zrotation
				JOINT LeftFoot
				{
					OFFSET -0.024144 -32.638630 -3.012600
					CHANNELS 3 Xrotation Yrotation Zrotation
					JOINT LeftToeBase
					{
						OFFSET 0.970200 -13.225400 11.864200
						CHANNELS 3 Xrotation Yrotation Zrotation
						End Site
						{
							OFFSET 0.000000 12.319262 0.000000
						}
					}
					JOINT LFootTongue
					{
						OFFSET 1.142400 -1.059800 6.665200
						CHANNELS 3 Xrotation Yrotation Zrotation
						End Site
						{
							OFFSET 0.000000 12.319262 0.000000
						}
					}
				}
				JOINT LeftPantLeg
				{
					OFFSET 0.918482 -16.533964 -2.284700
					CHANNELS 3 Xrotation Yrotation Zrotation
					End Site
					{
						OFFSET 0.350399 24.744368 0.000000
					}
				}
			}
		}
		JOINT RightUpLeg
		{
			OFFSET -8.479700 -4.795502 -0.379100
			CHANNELS 3 Xrotation Yrotation Zrotation
			JOINT RightLeg
			{
				OFFSET -0.023144 -32.555092 0.112900
				CHANNELS 3 Xrotation Yrotation Zrotation
				JOINT RightFoot
				{
					OFFSET 0.023144 -32.638641 -3.012700
					CHANNELS 3 Xrotation Yrotation Zrotation
					JOINT RightToeBase
					{
						OFFSET -0.970200 -13.225400 11.864200
						CHANNELS 3 Xrotation Yrotation Zrotation
						End Site
						{
							OFFSET 0.000000 12.319244 0.000000
						}
					}
					JOINT RFootTongue
					{
						OFFSET -1.142200 -1.059800 6.665200
						CHANNELS 3 Xrotation Yrotation Zrotation
						End Site
						{
							OFFSET 0.000000 12.319243 0.000000
						}
					}
				}
				JOINT RightPantLeg
				{
					OFFSET -0.919482 -16.533978 -2.284800
					CHANNELS 3 Xrotation Yrotation Zrotation
					End Site
					{
						OFFSET -0.350400 24.744419 0.000000
					}
				}
			}
		}
	}
	JOINT Spine
	{
		OFFSET 0.000000 7.722000 1.166200
		CHANNELS 3 Xrotation Yrotation Zrotation
		JOINT Spine1
		{
			OFFSET 0.000000 12.024101 0.248800
			CHANNELS 3 Xrotation Yrotation Zrotation
			JOINT Spine2
			{
				OFFSET 0.000000 11.502998 -0.491200
				CHANNELS 3 Xrotation Yrotation Zrotation
				JOINT Neck
				{
					OFFSET 0.000000 18.430702 -3.123100
					CHANNELS 3 Xrotation Yrotation Zrotation
					JOINT Head
					{
						OFFSET 0.000000 9.051102 1.034000
						CHANNELS 3 Xrotation Yrotation Zrotation
						JOINT HairB
						{
							OFFSET 0.208400 24.786102 24.822300
							CHANNELS 3 Xrotation Yrotation Zrotation
							End Site
							{
								OFFSET 0.000000 32.263779 0.000000
							}
						}
						JOINT HairA
						{
							OFFSET -7.081100 24.428299 23.196600
							CHANNELS 3 Xrotation Yrotation Zrotation
							End Site
							{
								OFFSET 0.000000 32.263779 0.000000
							}
						}
						JOINT Hat
						{
							OFFSET 16.728800 15.048294 -15.439601
							CHANNELS 3 Xrotation Yrotation Zrotation
							End Site
							{
								OFFSET 0.000000 32.263779 0.000000
							}
						}
					}
				}
				JOINT LeftShoulder
				{
					OFFSET 6.197800 13.665199 -4.064700
					CHANNELS 3 Xrotation Yrotation Zrotation
					JOINT LeftArm
					{
						OFFSET 7.778100 -0.187103 -1.709300
						CHANNELS 3 Xrotation Yrotation Zrotation
						JOINT LeftForeArm
						{
							OFFSET 22.049376 0.000000 0.000000
							CHANNELS 3 Xrotation Yrotation Zrotation
							JOINT LeftHand
							{
								OFFSET 23.009392 0.000000 0.000000
								CHANNELS 3 Xrotation Yrotation Zrotation
								JOINT LeftHandThumb1
								{
									OFFSET 3.507191 -2.063065 3.133727
									CHANNELS 3 Xrotation Yrotation Zrotation
									JOINT LeftHandThumb2
									{
										OFFSET 3.101337 -1.790558 1.790558
										CHANNELS 3 Xrotation Yrotation Zrotation
										JOINT LeftHandThumb3
										{
											OFFSET 3.058640 -1.765907 1.765906
											CHANNELS 3 Xrotation Yrotation Zrotation
											End Site
											{
												OFFSET -0.415260 3.926476 -0.049563
											}
										}
									}
								}
								JOINT LeftHandIndex1
								{
									OFFSET 11.334419 -0.901459 3.706815
									CHANNELS 3 Xrotation Yrotation Zrotation
									JOINT LeftHandIndex2
									{
										OFFSET 3.283112 0.000000 0.000000
										CHANNELS 3 Xrotation Yrotation Zrotation
										JOINT LeftHandIndex3
										{
											OFFSET 3.323853 0.000000 0.000000
											CHANNELS 3 Xrotation Yrotation Zrotation
											End Site
											{
												OFFSET -1.135597 3.097809 0.402452
											}
										}
									}
								}
								JOINT LeftHandMiddle1
								{
									OFFSET 11.335861 0.000000 0.000000
									CHANNELS 3 Xrotation Yrotation Zrotation
									JOINT LeftHandMiddle2
									{
										OFFSET 3.410492 0.000000 0.000000
										CHANNELS 3 Xrotation Yrotation Zrotation
										JOINT LeftHandMiddle3
										{
											OFFSET 3.312172 0.000000 0.000000
											CHANNELS 3 Xrotation Yrotation Zrotation
											End Site
											{
												OFFSET -1.150200 3.080154 0.400270
											}
										}
									}
								}
								JOINT LeftHandRing1
								{
									OFFSET 11.514786 -0.013176 -3.003090
									CHANNELS 3 Xrotation Yrotation Zrotation
									JOINT LeftHandRing2
									{
										OFFSET 3.053307 0.000000 0.000000
										CHANNELS 3 Xrotation Yrotation Zrotation
										JOINT LeftHandRing3
										{
											OFFSET 3.295807 0.000000 0.000000
											CHANNELS 3 Xrotation Yrotation Zrotation
											End Site
											{
												OFFSET -1.281006 3.013344 0.375733
											}
										}
									}
								}
								JOINT LeftHandPinky1
								{
									OFFSET 10.518692 -0.960396 -5.730441
									CHANNELS 3 Xrotation Yrotation Zrotation
									JOINT LeftHandPinky2
									{
										OFFSET 2.861649 0.000000 0.000000
										CHANNELS 3 Xrotation Yrotation Zrotation
										JOINT LeftHandPinky3
										{
											OFFSET 2.863380 0.000000 0.000000
											CHANNELS 3 Xrotation Yrotation Zrotation
											End Site
											{
												OFFSET -0.843597 2.711159 0.369971
											}
										}
									}
								}
							}
							JOINT LSleeve
							{
								OFFSET 6.676277 -0.344902 -1.011730
								CHANNELS 3 Xrotation Yrotation Zrotation
								End Site
								{
									OFFSET 0.000000 14.885353 0.000000
								}
							}
						}
					}
				}
				JOINT RightShoulder
				{
					OFFSET -6.197800 13.665199 -4.064700
					CHANNELS 3 Xrotation Yrotation Zrotation
					JOINT RightArm
					{
						OFFSET -7.778100 -0.187103 -1.709300
						CHANNELS 3 Xrotation Yrotation Zrotation
						JOINT RightForeArm
						{
							OFFSET -22.049376 0.000000 0.000000
							CHANNELS 3 Xrotation Yrotation Zrotation
							JOINT RightHand
							{
								OFFSET -23.009392 0.000000 0.000000
								CHANNELS 3 Xrotation Yrotation Zrotation
								JOINT RightHandThumb1
								{
									OFFSET -3.507191 -2.063065 3.133727
									CHANNELS 3 Xrotation Yrotation Zrotation
									JOINT RightHandThumb2
									{
										OFFSET -3.101337 -1.790558 1.790558
										CHANNELS 3 Xrotation Yrotation Zrotation
										JOINT RightHandThumb3
										{
											OFFSET -3.058640 -1.765907 1.765906
											CHANNELS 3 Xrotation Yrotation Zrotation
											End Site
											{
												OFFSET 0.415260 3.926476 -0.049563
											}
										}
									}
								}
								JOINT RightHandIndex1
								{
									OFFSET -11.334419 -0.901459 3.706815
									CHANNELS 3 Xrotation Yrotation Zrotation
									JOINT RightHandIndex2
									{
										OFFSET -3.283112 0.000000 0.000000
										CHANNELS 3 Xrotation Yrotation Zrotation
										JOINT RightHandIndex3
										{
											OFFSET -3.323853 0.000000 0.000000
											CHANNELS 3 Xrotation Yrotation Zrotation
											End Site
											{
												OFFSET 1.135597 3.097809 0.402452
											}
										}
									}
								}
								JOINT RightHandMiddle1
								{
									OFFSET -11.335861 0.000000 0.000000
									CHANNELS 3 Xrotation Yrotation Zrotation
									JOINT RightHandMiddle2
									{
										OFFSET -3.410492 0.000000 0.000000
										CHANNELS 3 Xrotation Yrotation Zrotation
										JOINT RightHandMiddle3
										{
											OFFSET -3.312172 0.000000 0.000000
											CHANNELS 3 Xrotation Yrotation Zrotation
											End Site
											{
												OFFSET 1.150200 3.080154 0.400270
											}
										}
									}
								}
								JOINT RightHandRing1
								{
									OFFSET -11.514786 -0.013176 -3.003090
									CHANNELS 3 Xrotation Yrotation Zrotation
									JOINT RightHandRing2
									{
										OFFSET -3.053307 0.000000 0.000000
										CHANNELS 3 Xrotation Yrotation Zrotation
										JOINT RightHandRing3
										{
											OFFSET -3.295807 0.000000 0.000000
											CHANNELS 3 Xrotation Yrotation Zrotation
											End Site
											{
												OFFSET 1.281006 3.013344 0.375733
											}
										}
									}
								}
								JOINT RightHandPinky1
								{
									OFFSET -10.518692 -0.960396 -5.730441
									CHANNELS 3 Xrotation Yrotation Zrotation
									JOINT RightHandPinky2
									{
										OFFSET -2.861649 0.000000 0.000000
										CHANNELS 3 Xrotation Yrotation Zrotation
										JOINT RightHandPinky3
										{
											OFFSET -2.863380 0.000000 0.000000
											CHANNELS 3 Xrotation Yrotation Zrotation
											End Site
											{
												OFFSET 0.843597 2.711159 0.369971
											}
										}
									}
								}
							}
							JOINT RSleeve
							{
								OFFSET -6.676277 -0.344902 -1.011730
								CHANNELS 3 Xrotation Yrotation Zrotation
								End Site
								{
									OFFSET 0.000000 14.885353 0.000000
								}
							}
						}
					}
				}
				JOINT Backpack
				{
					OFFSET 0.000000 -2.471497 36.677502
					CHANNELS 3 Xrotation Yrotation Zrotation
					End Site
					{
						OFFSET 0.000000 20.427315 0.000000
					}
				}
				JOINT Hood
				{
					OFFSET 0.000000 18.754097 -10.431000
					CHANNELS 3 Xrotation Yrotation Zrotation
					JOINT Hood1
					{
						OFFSET 0.000000 -5.011002 -7.685901
						CHANNELS 3 Xrotation Yrotation Zrotation
						End Site
						{
							OFFSET 0.000000 9.175140 0.000000
						}
					}
				}
				JOINT LHoodieString
				{
					OFFSET 5.250500 16.397697 3.089900
					CHANNELS 3 Xrotation Yrotation Zrotation
					JOINT LHoodieString1
					{
						OFFSET 0.257700 -6.364304 3.694600
						CHANNELS 3 Xrotation Yrotation Zrotation
						JOINT LHoodieString2
						{
							OFFSET 0.000000 -9.643799 2.679100
							CHANNELS 3 Xrotation Yrotation Zrotation
							End Site
							{
								OFFSET 0.000000 10.009018 0.000000
							}
						}
					}
				}
				JOINT RHoodieString
				{
					OFFSET -5.250500 16.397697 3.089900
					CHANNELS 3 Xrotation Yrotation Zrotation
					JOINT RHoodieString1
					{
						OFFSET -0.257700 -6.364304 3.694600
						CHANNELS 3 Xrotation Yrotation Zrotation
						JOINT RHoodieString2
						{
							OFFSET 0.000000 -9.643799 2.679100
							CHANNELS 3 Xrotation Yrotation Zrotation
							End Site
							{
								OFFSET 0.000000 10.009018 0.000000
							}
						}
					}
				}
			}
			JOINT LBackpack_Strap
			{
				OFFSET 15.223200 -7.719803 -6.610900
				CHANNELS 3 Xrotation Yrotation Zrotation
				End Site
				{
					OFFSET 0.000000 16.040596 0.000000
				}
			}
			JOINT RBackpack_Strap
			{
				OFFSET -15.223000 -7.719803 -6.610900
				CHANNELS 3 Xrotation Yrotation Zrotation
				End Site
				{
					OFFSET 0.000000 16.040596 0.000000
				}
			}
		}
	}
	JOINT BoyFacialAnim_Joint
	{
		OFFSET 1.000000 -82.208099 -1.550900
		CHANNELS 3 Xrotation Yrotation Zrotation
		End Site
		{
			OFFSET 0.000000 30.012791 0.000000
		}
	}
}
MOTION
Frames: 4
Frame Time: 0.033333
-0.632271 81.788536 1.186089 -4.529634 0.830318 -1.268526 0.000000 0.000000 -0.000000 -3.052027 11.593355 5.140455 18.282663 -6.145671 3.897668 -11.277678 0.709565 -4.903859 0.000000 -0.000000 -0.000000 0.000000 -0.000000 -0.000000 -0.000001 -0.000000 0.000001 -1.417419 -1.896102 -0.828500 15.272740 -1.682324 -2.936507 -9.189732 -0.690746 5.126261 0.000000 0.000000 -0.000000 0.000000 0.000000 -0.000000 0.000000 0.000000 0.000000 2.454086 -1.392051 2.449353 1.154259 -0.260419 0.300105 1.153689 -0.264031 0.298581 -0.892494 -0.115339 0.708609 2.457218 0.498067 -0.359116 -0.000000 -0.000000 0.000000 -0.000000 -0.000000 0.000000 -0.000000 -0.000000 0.000000 0.510195 -4.024024 -0.355561 4.026808 -1.488378 -83.535024 0.000001 -16.109546 0.000004 12.774935 -9.146984 1.582670 -9.513467 -2.840308 4.124828 6.635317 18.895225 -1.402034 -0.000001 0.000000 -0.000001 -2.154320 -0.498856 -37.601021 0.767872 3.164844 -27.269563 -0.000000 -0.000001 -0.000007 2.243482 5.189775 -39.656990 0.703808 3.037536 -26.085529 0.000004 0.000002 0.000004 2.592344 5.505827 -42.530355 0.440811 2.428403 -20.573986 -0.000003 -0.000000 -0.000004 2.563140 5.754886 -36.071523 0.046425 -3.172316 -7.839632 -0.000000 0.000000 0.000001 -0.000000 0.000001 0.000000 0.872436 8.644837 0.795396 7.917980 14.524559 78.770229 -0.000002 19.008871 0.000005 -16.354917 -5.403803 -1.291076 -13.396557 1.055717 -6.976016 13.748735 -30.403672 1.863030 0.000000 -0.000002 -0.000003 -0.959000 0.826921 23.299794 1.052946 -3.683950 31.892394 -0.000002 -0.000001 0.000003 1.604878 -4.536536 32.876228 1.248114 -3.979806 34.812156 0.000000 0.000001 0.000002 1.858112 -4.881189 33.995344 0.999410 -3.596669 31.049316 0.000002 0.000001 0.000000 0.674161 -3.140215 34.330901 1.239797 -3.967856 34.692078 0.000000 -0.000001 0.000004 0.000001 -0.000002 0.000000 -0.000000 0.000000 -0.000000 -0.000000 0.000000 -0.000000 -0.000000 0.000000 -0.000000 -0.000000 0.000000 -0.000000 -0.000000 0.000000 -0.000000 -0.000000 0.000000 -0.000000 -0.000000 0.000000 -0.000000 -0.000000 0.000000 -0.000000 -0.000000 0.000000 -0.000000 0.000000 0.000000 0.000000 0.000000 0.000000 0.000000 0.000000 0.000000 -0.000000 
-0.638606 81.768486 1.252398 -4.307885 0.962869 -1.406598 0.000000 0.000000 0.000000 -3.473953 11.717993 5.406859 18.623098 -6.459726 3.839423 -11.470329 0.706889 -4.827055 0.000000 0.000000 -0.000000 0.000000 0.000000 -0.000000 0.000001 0.000000 -0.000001 -1.539886 -1.755565 -0.642494 15.207759 -2.018010 -2.938484 -9.209924 -0.696212 5.160513 -0.000000 0.000000 0.000000 -0.000000 0.000000 0.000000 -0.000001 0.000000 0.000000 2.183991 -1.393192 2.627583 1.115835 -0.259025 0.315978 1.115212 -0.262900 0.314407 -0.636639 -0.168074 0.566045 4.449559 0.031407 -0.253535 0.000000 0.000000 -0.000000 0.000000 0.000000 -0.000000 0.000000 0.000000 -0.000000 0.486324 -3.671328 -0.322736 4.062018 -1.524090 -83.706427 -0.000005 -16.162832 -0.000027 13.170689 -8.909406 1.569185 -9.249062 -2.665275 4.137644 6.636232 18.898304 -1.402728 -0.000002 0.000000 0.000000 -2.166575 -0.478123 -37.818156 0.800948 3.228078 -27.862623 -0.000004 -0.000001 -0.000002 2.191409 5.126764 -39.682074 0.744650 3.119442 -26.845888 0.000003 0.000003 0.000001 2.597507 5.505732 -42.726590 0.464233 2.489851 -21.119853 0.000005 0.000001 -0.000000 2.582870 5.770130 -36.260006 0.054585 -3.114910 -8.319612 -0.000001 0.000000 0.000003 0.000001 0.000000 -0.000000 0.877129 8.700354 0.740986 8.204118 14.516375 78.764608 -0.000004 19.064031 0.000021 -16.381795 -5.450009 -1.082480 -13.342849 0.955740 -6.970344 13.754299 -30.415071 1.864594 0.000000 0.000001 -0.000000 -0.996278 0.895485 23.413412 1.057188 -3.690749 31.958377 -0.000001 0.000000 -0.000002 1.582808 -4.502247 32.888700 1.250089 -3.982636 34.840576 0.000002 0.000001 -0.000002 1.837441 -4.849741 34.023474 1.005960 -3.607505 31.153531 -0.000003 0.000000 0.000000 0.728098 -3.218522 34.301135 1.243353 -3.972966 34.743403 -0.000001 0.000001 -0.000003 0.000000 -0.000001 0.000000 -0.000000 0.000000 0.000000 -0.000000 0.000000 0.000000 -0.000000 0.000000 0.000000 -0.000000 0.000000 0.000000 -0.000000 0.000000 -0.000000 -0.000000 0.000000 0.000000 -0.000000 0.000000 0.000000 -0.000000 0.000000 -0.000000 -0.000000 0.000000 0.000000 -0.000000 0.000000 0.000000 -0.000000 0.000000 0.000000 0.000000 0.000000 0.000000 
-0.630894 81.749512 1.414831 -4.229814 0.772993 -1.427632 0.000001 -0.000000 0.000000 -3.417436 11.861954 5.501679 18.656327 -6.446077 3.704205 -11.653008 0.705818 -4.774381 -0.000000 0.000000 -0.000000 -0.000000 0.000000 -0.000000 -0.000000 -0.000000 0.000001 -1.535004 -1.707861 -0.625216 15.274738 -1.848640 -2.975237 -9.367104 -0.705430 5.169122 0.000000 -0.000000 0.000000 0.000000 -0.000000 0.000000 0.000000 -0.000000 -0.000000 1.839806 -1.090406 2.627602 1.069285 -0.199320 0.253406 1.068686 -0.203368 0.252149 -0.082579 -0.310085 0.691574 7.809216 -0.407960 -0.586605 0.000000 0.000000 -0.000000 0.000000 0.000000 -0.000000 0.000000 0.000000 -0.000000 0.447404 -3.126270 -0.216386 4.043338 -1.451332 -84.040205 0.000002 -16.025389 0.000020 13.610816 -8.774310 1.598458 -8.991987 -2.495076 4.149671 6.655408 18.962494 -1.416973 -0.000001 -0.000001 -0.000000 -2.172388 -0.443355 -38.067813 0.833050 3.288004 -28.427550 0.000001 0.000001 -0.000002 2.149090 5.075495 -39.708005 0.785036 3.197849 -27.578700 0.000003 0.000000 -0.000003 2.601506 5.504753 -42.912637 0.486637 2.547067 -21.629857 0.000003 0.000000 -0.000007 2.601035 5.784115 -36.432034 0.062816 -3.060260 -8.777116 0.000002 0.000001 -0.000000 -0.000000 0.000001 -0.000001 0.895222 8.951583 0.695002 8.522780 14.379946 78.855101 0.000000 18.985289 -0.000002 -16.591713 -5.431759 -0.946677 -13.290177 0.859340 -6.968718 13.753240 -30.412858 1.864326 -0.000000 0.000000 -0.000002 -1.034043 0.962709 23.536188 1.061020 -3.696868 32.017840 -0.000000 0.000000 0.000002 1.560043 -4.466920 32.901230 1.251982 -3.985347 34.867784 0.000001 -0.000001 0.000001 1.818848 -4.821685 34.044040 1.012217 -3.617808 31.252791 0.000002 0.000000 0.000002 0.785860 -3.302439 34.264539 1.247010 -3.978231 34.796245 0.000001 -0.000001 -0.000002 -0.000002 -0.000002 0.000000 -0.000000 -0.000000 0.000000 -0.000000 -0.000000 0.000000 -0.000000 -0.000000 0.000000 -0.000000 -0.000000 0.000000 -0.000000 -0.000000 0.000000 0.000000 -0.000000 0.000000 -0.000000 -0.000000 0.000000 -0.000000 -0.000000 0.000000 0.000000 -0.000000 0.000000 -0.000000 -0.000000 -0.000000 -0.000000 -0.000000 -0.000000 0.000001 -0.000000 0.000000 
-0.610629 81.749954 1.595480 -4.161042 0.470690 -1.403220 0.000000 -0.000000 0.000000 -3.094177 11.684475 5.268670 18.381166 -5.889752 3.866361 -11.721528 0.732245 -4.956148 -0.000000 0.000000 -0.000000 -0.000000 0.000000 -0.000000 0.000000 0.000000 -0.000000 -1.463315 -1.709240 -0.682568 15.223874 -1.544754 -3.004644 -9.469129 -0.709267 5.164192 -0.000000 -0.000000 -0.000000 -0.000000 -0.000000 -0.000000 0.000001 -0.000000 -0.000000 1.516552 -0.729774 2.586884 1.058236 -0.128418 0.182395 1.057774 -0.132666 0.181521 0.606635 -0.494419 0.706128 10.233378 -1.245342 -0.776633 0.000001 -0.000000 0.000000 0.000001 -0.000000 0.000000 0.000001 -0.000000 0.000000 0.408407 -2.622887 -0.097598 4.019276 -1.369552 -84.405934 0.000002 -15.862247 -0.000009 13.818240 -8.732359 1.842136 -8.753100 -2.337073 4.160967 6.676648 19.033473 -1.432806 -0.000001 -0.000001 0.000004 -2.169066 -0.398481 -38.307898 0.862905 3.342466 -28.943654 -0.000002 -0.000001 -0.000005 2.116184 5.036639 -39.683983 0.822853 3.269113 -28.249070 0.000003 0.000001 0.000001 2.606899 5.506662 -43.050279 0.507539 2.599082 -22.095273 -0.000000 0.000000 -0.000000 2.617156 5.796468 -36.583627 0.070882 -3.009359 -9.203767 -0.000002 0.000000 0.000003 0.000000 0.000001 0.000000 0.914276 9.223284 0.665447 8.718118 14.240583 78.945034 0.000002 18.834764 -0.000018 -16.825601 -5.309929 -0.968125 -13.242166 0.770548 -6.964636 13.747261 -30.400649 1.862607 0.000000 -0.000001 -0.000002 -1.071324 1.031817 23.637902 1.064412 -3.702278 32.070429 -0.000001 0.000000 0.000002 1.541556 -4.438523 32.900195 1.253645 -3.987728 34.891745 0.000000 0.000001 0.000002 1.803802 -4.799579 34.043729 1.017874 -3.627097 31.342355 0.000001 -0.000001 -0.000001 0.847377 -3.391769 34.212486 1.250334 -3.982995 34.844121 -0.000002 0.000001 -0.000001 0.000001 -0.000002 0.000000 -0.000000 -0.000000 0.000000 -0.000000 -0.000000 0.000000 -0.000000 -0.000000 0.000000 -0.000000 -0.000000 0.000000 -0.000000 -0.000000 0.000000 -0.000000 0.000000 0.000000 -0.000000 -0.000000 0.000000 -0.000000 -0.000000 0.000000 -0.000000 0.000000 0.000000 0.000000 -0.000000 0.000000 0.000000 -0.000000 0.000000 0.000000 -0.000000 0.000000 
